<svg xmlns="http://www.w3.org/2000/svg" viewBox="0 0 2246 2665">
  <style>
    path { fill: #222; }
    @media (prefers-color-scheme: dark) {
      path { fill: #ffffff; }
    }
  </style>
<path d="M2155 0H2150C2015.33 0 1775.67 312.333 1431 937C1427.2 944.307 1423.42 951.585 1419.66 958.833C1354.49 1025.72 1215.93 1169.11 1004 1389L1084 1186C1156.67 966 1193 835.333 1193 794V791C1193 765 1178 749.667 1148 745H1134C1123.33 745 1112 753.667 1100 771C1077.33 827.667 1047 888.667 1009 954C904.333 1128.67 807.333 1237.33 718 1280C718 1254.67 729.333 1211.33 752 1150L840 956V943C840 921 824.333 907 793 901L774 904C664 1004.67 554.333 1055 445 1055H442C365.333 1055 291 1032.67 219 988C173 955.333 147.667 939 143 939H130C105.333 939 90 954.667 84 986C84 996.667 87.6667 1007 95 1017C200.333 1105.67 314.333 1150 437 1150H440C518.667 1150 593.667 1133.33 665 1100C635 1183.33 620 1242.33 620 1277C627.333 1349 656.333 1385 707 1385C773.667 1385 864.667 1314 980 1172C943.333 1266.67 886.333 1396.67 809 1562C269.667 2100.67 0 2435 0 2565C0 2625 35 2658.33 105 2665H130C205.333 2665 313.667 2566 455 2368C611 2136.67 753.333 1888.33 882 1623C882.597 1617.63 1018.75 1481.78 1290.46 1215.45C1076.82 1653.95 970 1957.14 970 2125C970 2136.33 971 2149.33 973 2164C985.667 2235.33 1018.67 2271 1072 2271H1078C1152 2271 1237.33 2189.33 1334 2026C1474 1760 1544 1534.33 1544 1349V1320C1544 1284 1540.33 1253 1533 1227C1576.33 1241 1618 1248 1658 1248H1668C1785.33 1248 1909.33 1193.67 2040 1085C2124 1015 2166 968 2166 944C2166 920 2150.33 904.333 2119 897H2113L2095 900C1935.67 1068.67 1791.67 1153 1663 1153H1658C1594.67 1153 1530.33 1130.67 1465 1086C1482.17 1050.39 1496.45 1022.55 1507.84 1002.48C1520.87 987.481 1528.84 976.193 1531.75 968.613C2007.92 517.607 2246 228.736 2246 102C2246 82.6667 2243.33 67.3333 2238 56C2222 18.6667 2194.33 0 2155 0ZM1705 674H1703C1754.33 586.667 1825.33 477.333 1916 346C2032 197.333 2108.33 120.333 2145 115C2136.33 150.333 2109 198.667 2063 260C2019.67 333.333 1900.33 471.333 1705 674ZM1067 2135C1067 1970.33 1182 1652.33 1412 1181C1435.33 1214.33 1447 1261 1447 1321V1348C1447 1513.33 1383.33 1719.67 1256 1967C1178 2098.33 1118.67 2167.67 1078 2175C1073.33 2175 1069.67 2161.67 1067 2135ZM108 2572H97C97 2486 280.333 2254.67 647 1878H650C567.333 2026.67 487.667 2156.67 411 2268C287.667 2452 190 2554.33 118 2575C115.333 2573 112 2572 108 2572Z"/>
</svg>
